<svg width="20" height="20" viewBox="0 0 20 21" fill="none" xmlns="http://www.w3.org/2000/svg">
<path fill-rule="evenodd" clip-rule="evenodd" d="M9.99984 4.77075C8.51399 4.77075 7.19959 5.35456 6.25584 6.16848C5.45801 6.85655 4.87983 7.75169 4.73132 8.65096C2.98511 9.0365 1.6665 10.5573 1.6665 12.3939C1.6665 14.527 3.44519 16.2291 5.60531 16.2291H14.8827C16.7731 16.2291 18.3332 14.739 18.3332 12.8673C18.3332 11.163 17.0395 9.77503 15.3808 9.54053C15.1283 6.8535 12.8022 4.77075 9.99984 4.77075ZM12.4515 11.9099L10.3681 13.9932C10.1647 14.1966 9.83495 14.1966 9.63155 13.9932L7.54822 11.9099C7.34482 11.7065 7.34482 11.3767 7.54822 11.1733C7.75162 10.9699 8.08139 10.9699 8.28479 11.1733L9.479 12.3675V8.41659C9.479 8.12894 9.71219 7.89575 9.99984 7.89575C10.2875 7.89575 10.5207 8.12894 10.5207 8.41659V12.3675L11.7149 11.1733C11.9183 10.9699 12.2481 10.9699 12.4515 11.1733C12.6549 11.3767 12.6549 11.7065 12.4515 11.9099Z" fill="#08091C"/>
</svg>
