<svg width="11" height="11" viewBox="0 0 11 11" fill="none" xmlns="http://www.w3.org/2000/svg">
<path fill-rule="evenodd" clip-rule="evenodd" d="M3.23728 3.71702C3.35932 3.59498 3.55718 3.59498 3.67922 3.71702L5.33325 5.37105L6.98728 3.71702C7.10932 3.59498 7.30718 3.59498 7.42922 3.71702C7.55126 3.83906 7.55126 4.03692 7.42922 4.15896L5.77519 5.81299L7.42922 7.46702C7.55126 7.58906 7.55126 7.78692 7.42922 7.90896C7.30718 8.031 7.10932 8.031 6.98728 7.90896L5.33325 6.25493L3.67922 7.90896C3.55718 8.031 3.35932 8.031 3.23728 7.90896C3.11524 7.78692 3.11524 7.58906 3.23728 7.46702L4.89131 5.81299L3.23728 4.15896C3.11524 4.03692 3.11524 3.83906 3.23728 3.71702Z" fill="#08091C"/>
</svg>
