<svg width="12" height="12" viewBox="0 0 12 13" fill="none" xmlns="http://www.w3.org/2000/svg">
<mask id="mask0_2009_2113" style="mask-type:alpha" maskUnits="userSpaceOnUse" x="0" y="0" width="12" height="13">
<rect y="0.812988" width="12" height="12" fill="#D9D9D9"/>
</mask>
<g mask="url(#mask0_2009_2113)">
<path d="M4.5 9.81299H7.5C7.64167 9.81299 7.76042 9.76507 7.85625 9.66924C7.95208 9.57341 8 9.45466 8 9.31299C8 9.17132 7.95208 9.05257 7.85625 8.95674C7.76042 8.86091 7.64167 8.81299 7.5 8.81299H4.5C4.35833 8.81299 4.23958 8.86091 4.14375 8.95674C4.04792 9.05257 4 9.17132 4 9.31299C4 9.45466 4.04792 9.57341 4.14375 9.66924C4.23958 9.76507 4.35833 9.81299 4.5 9.81299ZM4.5 7.81299H7.5C7.64167 7.81299 7.76042 7.76507 7.85625 7.66924C7.95208 7.57341 8 7.45466 8 7.31299C8 7.17132 7.95208 7.05257 7.85625 6.95674C7.76042 6.86091 7.64167 6.81299 7.5 6.81299H4.5C4.35833 6.81299 4.23958 6.86091 4.14375 6.95674C4.04792 7.05257 4 7.17132 4 7.31299C4 7.45466 4.04792 7.57341 4.14375 7.66924C4.23958 7.76507 4.35833 7.81299 4.5 7.81299ZM3 11.813C2.725 11.813 2.48958 11.7151 2.29375 11.5192C2.09792 11.3234 2 11.088 2 10.813V2.81299C2 2.53799 2.09792 2.30257 2.29375 2.10674C2.48958 1.9109 2.725 1.81299 3 1.81299H6.5875C6.72083 1.81299 6.84792 1.83799 6.96875 1.88799C7.08958 1.93799 7.19583 2.00882 7.2875 2.10049L9.7125 4.52549C9.80417 4.61716 9.875 4.7234 9.925 4.84424C9.975 4.96507 10 5.09215 10 5.22549V10.813C10 11.088 9.90208 11.3234 9.70625 11.5192C9.51042 11.7151 9.275 11.813 9 11.813H3ZM6.5 4.81299C6.5 4.95465 6.54792 5.07341 6.64375 5.16924C6.73958 5.26507 6.85833 5.31299 7 5.31299H9L6.5 2.81299V4.81299Z" fill="#08091C"/>
</g>
</svg>
