<svg width="14" height="14" viewBox="0 0 14 14" fill="none" xmlns="http://www.w3.org/2000/svg">
<mask id="mask0_2536_1619" style="mask-type:alpha" maskUnits="userSpaceOnUse" x="0" y="0" width="14" height="14">
<rect width="14" height="14" fill="#D9D9D9"/>
</mask>
<g mask="url(#mask0_2536_1619)">
<path d="M6.41667 7.58341H3.50001C3.33473 7.58341 3.19619 7.52751 3.08438 7.41571C2.97257 7.3039 2.91667 7.16536 2.91667 7.00008C2.91667 6.8348 2.97257 6.69626 3.08438 6.58446C3.19619 6.47265 3.33473 6.41675 3.50001 6.41675H6.41667V3.50008C6.41667 3.3348 6.47257 3.19626 6.58438 3.08446C6.69619 2.97265 6.83473 2.91675 7 2.91675C7.16528 2.91675 7.30382 2.97265 7.41563 3.08446C7.52744 3.19626 7.58334 3.3348 7.58334 3.50008V6.41675H10.5C10.6653 6.41675 10.8038 6.47265 10.9156 6.58446C11.0274 6.69626 11.0833 6.8348 11.0833 7.00008C11.0833 7.16536 11.0274 7.3039 10.9156 7.41571C10.8038 7.52751 10.6653 7.58341 10.5 7.58341H7.58334V10.5001C7.58334 10.6654 7.52744 10.8039 7.41563 10.9157C7.30382 11.0275 7.16528 11.0834 7 11.0834C6.83473 11.0834 6.69619 11.0275 6.58438 10.9157C6.47257 10.8039 6.41667 10.6654 6.41667 10.5001V7.58341Z" fill="white"/>
</g>
</svg>
